<svg width="20" height="21" viewBox="0 0 20 21" fill="none" xmlns="http://www.w3.org/2000/svg">
<path d="M10 0.5C12.717 0.5 13.056 0.51 14.122 0.56C15.187 0.61 15.912 0.777 16.55 1.025C17.21 1.279 17.766 1.623 18.322 2.178C18.8305 2.6779 19.224 3.28259 19.475 3.95C19.722 4.587 19.89 5.313 19.94 6.378C19.987 7.444 20 7.783 20 10.5C20 13.217 19.99 13.556 19.94 14.622C19.89 15.687 19.722 16.412 19.475 17.05C19.2247 17.7178 18.8311 18.3226 18.322 18.822C17.822 19.3303 17.2173 19.7238 16.55 19.975C15.913 20.222 15.187 20.39 14.122 20.44C13.056 20.487 12.717 20.5 10 20.5C7.283 20.5 6.944 20.49 5.878 20.44C4.813 20.39 4.088 20.222 3.45 19.975C2.78233 19.7245 2.17753 19.3309 1.678 18.822C1.16941 18.3222 0.775931 17.7175 0.525 17.05C0.277 16.413 0.11 15.687 0.0599999 14.622C0.0129999 13.556 0 13.217 0 10.5C0 7.783 0.00999994 7.444 0.0599999 6.378C0.11 5.312 0.277 4.588 0.525 3.95C0.775236 3.28218 1.1688 2.67732 1.678 2.178C2.17767 1.66923 2.78243 1.27573 3.45 1.025C4.088 0.777 4.812 0.61 5.878 0.56C6.944 0.513 7.283 0.5 10 0.5ZM10 5.5C8.67392 5.5 7.40215 6.02678 6.46447 6.96447C5.52678 7.90215 5 9.17392 5 10.5C5 11.8261 5.52678 13.0979 6.46447 14.0355C7.40215 14.9732 8.67392 15.5 10 15.5C11.3261 15.5 12.5979 14.9732 13.5355 14.0355C14.4732 13.0979 15 11.8261 15 10.5C15 9.17392 14.4732 7.90215 13.5355 6.96447C12.5979 6.02678 11.3261 5.5 10 5.5ZM16.5 5.25C16.5 4.91848 16.3683 4.60054 16.1339 4.36612C15.8995 4.1317 15.5815 4 15.25 4C14.9185 4 14.6005 4.1317 14.3661 4.36612C14.1317 4.60054 14 4.91848 14 5.25C14 5.58152 14.1317 5.89946 14.3661 6.13388C14.6005 6.3683 14.9185 6.5 15.25 6.5C15.5815 6.5 15.8995 6.3683 16.1339 6.13388C16.3683 5.89946 16.5 5.58152 16.5 5.25ZM10 7.5C10.7956 7.5 11.5587 7.81607 12.1213 8.37868C12.6839 8.94129 13 9.70435 13 10.5C13 11.2956 12.6839 12.0587 12.1213 12.6213C11.5587 13.1839 10.7956 13.5 10 13.5C9.20435 13.5 8.44129 13.1839 7.87868 12.6213C7.31607 12.0587 7 11.2956 7 10.5C7 9.70435 7.31607 8.94129 7.87868 8.37868C8.44129 7.81607 9.20435 7.5 10 7.5Z" fill="white"/>
</svg>
