<svg width="48" height="59" viewBox="0 0 48 59" fill="none" xmlns="http://www.w3.org/2000/svg">
<path d="M40.9707 41.3039L24 58.2745L7.02934 41.3039C3.67291 37.9474 1.38716 33.671 0.461143 29.0155C-0.464879 24.3599 0.0104183 19.5343 1.82693 15.1489C3.64344 10.7635 6.71958 7.01525 10.6664 4.37811C14.6131 1.74097 19.2533 0.333405 24 0.333405C28.7467 0.333405 33.3869 1.74097 37.3337 4.37811C41.2804 7.01525 44.3566 10.7635 46.1731 15.1489C47.9896 19.5343 48.4649 24.3599 47.5389 29.0155C46.6129 33.671 44.3271 37.9474 40.9707 41.3039ZM24 29.6665C25.4145 29.6665 26.771 29.1046 27.7712 28.1044C28.7714 27.1042 29.3333 25.7477 29.3333 24.3332C29.3333 22.9187 28.7714 21.5622 27.7712 20.562C26.771 19.5618 25.4145 18.9999 24 18.9999C22.5855 18.9999 21.229 19.5618 20.2288 20.562C19.2286 21.5622 18.6667 22.9187 18.6667 24.3332C18.6667 25.7477 19.2286 27.1042 20.2288 28.1044C21.229 29.1046 22.5855 29.6665 24 29.6665Z" fill="#FF0000"/>
</svg>
